<svg xmlns="http://www.w3.org/2000/svg" xmlns:xlink="http://www.w3.org/1999/xlink" viewBox="0 0 179.16 205.42"><defs><style>.cls-1{isolation:isolate;}.cls-2{fill:url(#linear-gradient);}.cls-3{fill:url(#linear-gradient-2);}.cls-4,.cls-5,.cls-6,.cls-7{opacity:0.6;mix-blend-mode:multiply;}.cls-4{fill:url(#linear-gradient-3);}.cls-5{fill:url(#linear-gradient-4);}.cls-6{fill:url(#linear-gradient-5);}.cls-7{fill:url(#linear-gradient-6);}</style><linearGradient id="linear-gradient" x1="23.51" y1="129.83" x2="132.74" y2="20.6" gradientUnits="userSpaceOnUse"><stop offset="0" stop-color="#00fee2"/><stop offset="1" stop-color="#ab5eec"/></linearGradient><linearGradient id="linear-gradient-2" x1="46.43" y1="184.82" x2="155.66" y2="75.59" xlink:href="#linear-gradient"/><linearGradient id="linear-gradient-3" x1="55.18" y1="130.39" x2="179.16" y2="130.39" gradientUnits="userSpaceOnUse"><stop offset="0" stop-color="#fff"/><stop offset="0.37" stop-color="#fdfdfd"/><stop offset="0.51" stop-color="#f6f6f6"/><stop offset="0.6" stop-color="#ebebeb"/><stop offset="0.68" stop-color="#dadada"/><stop offset="0.75" stop-color="#c4c4c4"/><stop offset="0.8" stop-color="#a8a8a8"/><stop offset="0.86" stop-color="#888"/><stop offset="0.91" stop-color="#626262"/><stop offset="0.95" stop-color="#373737"/><stop offset="0.99" stop-color="#090909"/><stop offset="1"/></linearGradient><linearGradient id="linear-gradient-4" x1="-882.93" y1="-172.41" x2="-758.95" y2="-172.41" gradientTransform="translate(-758.95 -97.19) rotate(180)" xlink:href="#linear-gradient-3"/><linearGradient id="linear-gradient-5" x1="55.2" y1="102.85" x2="138.7" y2="102.85" gradientUnits="userSpaceOnUse"><stop offset="0" stop-color="#fff"/><stop offset="0.16" stop-color="#fcfcfc"/><stop offset="0.29" stop-color="#f2f2f2"/><stop offset="0.41" stop-color="#e1e1e1"/><stop offset="0.52" stop-color="#c9c9c9"/><stop offset="0.63" stop-color="#aaa"/><stop offset="0.74" stop-color="#848484"/><stop offset="0.84" stop-color="#585858"/><stop offset="0.94" stop-color="#252525"/><stop offset="1"/></linearGradient><linearGradient id="linear-gradient-6" x1="40.52" y1="103.57" x2="123.97" y2="103.57" gradientUnits="userSpaceOnUse"><stop offset="0"/><stop offset="0.06" stop-color="#252525"/><stop offset="0.16" stop-color="#585858"/><stop offset="0.26" stop-color="#848484"/><stop offset="0.37" stop-color="#aaa"/><stop offset="0.48" stop-color="#c9c9c9"/><stop offset="0.59" stop-color="#e1e1e1"/><stop offset="0.71" stop-color="#f2f2f2"/><stop offset="0.84" stop-color="#fcfcfc"/><stop offset="1" stop-color="#fff"/></linearGradient></defs><g class="cls-1"><g id="Capa_2" data-name="Capa 2"><g id="OBJECTS"><path class="cls-2" d="M103.75,110H75.22a34.76,34.76,0,1,1,0-69.51h3.12V20.52H93.9V40.46h9.85a20.23,20.23,0,1,0,0-40.46H75.22a75.22,75.22,0,0,0,0,150.44h28.53a20.24,20.24,0,0,0,0-40.47Z"/><path class="cls-3" d="M104,55H75.41a20.23,20.23,0,0,0,0,40.46H104A34.76,34.76,0,0,1,104,165h-10v20H78.34V165H75.41a20.23,20.23,0,0,0,0,40.46H104A75.22,75.22,0,0,0,104,55Z"/><path class="cls-4" d="M111.49,55.37a65,65,0,0,1-7,129.55H55.2c0,.09,0,.18,0,.27a20.23,20.23,0,0,0,20.23,20.23H104a75.21,75.21,0,0,0,7.54-150Z"/><path class="cls-5" d="M67.67,150.25a65,65,0,0,1,7-129.56H124c0-.09,0-.18,0-.27A20.23,20.23,0,0,0,103.75.19H75.22a75.22,75.22,0,0,0-7.55,150.06Z"/><path class="cls-6" d="M84.52,75.49H55.2a20.21,20.21,0,0,0,20.21,20H104A34.79,34.79,0,0,1,138.7,130.2h0C138.7,100,114.69,75.49,84.52,75.49Z"/><path class="cls-7" d="M103.75,110H75.22a34.79,34.79,0,0,1-34.7-32.76,54.29,54.29,0,0,0,54.13,52.72H124c0-.36,0-.71-.06-1.06s0-.57,0-.84-.12-.8-.18-1.19-.08-.54-.14-.81-.19-.79-.3-1.18-.12-.5-.2-.74c-.13-.41-.28-.8-.44-1.2-.08-.21-.15-.43-.24-.64-.18-.42-.39-.83-.6-1.24-.08-.17-.16-.35-.25-.51-.24-.44-.51-.87-.78-1.29-.08-.12-.15-.25-.22-.36-.32-.47-.66-.92-1-1.35l-.15-.2a18.79,18.79,0,0,0-1.28-1.4v0A20.2,20.2,0,0,0,103.75,110Z"/></g></g></g></svg>